<svg width="56" height="56" fill="none" xmlns="http://www.w3.org/2000/svg"><path fill-rule="evenodd" clip-rule="evenodd" d="M22.808 1.696a8.794 8.794 0 0110.383 0l19.176 14.01a8.88 8.88 0 013.202 9.898l-7.325 22.67a8.827 8.827 0 01-8.393 6.126H16.15a8.827 8.827 0 01-8.393-6.126L.43 25.604a8.88 8.88 0 013.201-9.897L22.808 1.696z" fill="#001926"/><path d="M40.278 9.844l-7.542 15.084-2.048-1.28 4.4-17.597 5.19 3.793zm-7.382 18.014a3.193 3.193 0 011.504 2.714v1.453a.48.48 0 01-.694.426L24.8 27.998v-2.4a.8.8 0 01.78-.8h1.503a3.2 3.2 0 011.696.487l4.117 2.573z" fill="#76FF33"/><path d="M18.67 24.933l2.392-1.594a5.6 5.6 0 013.107-.94h2.914a5.6 5.6 0 012.077.4L31.12 3.21a6.394 6.394 0 00-6.895.421L5.049 17.642a6.48 6.48 0 00-2.334 7.223l7.325 22.67a6.427 6.427 0 006.109 4.463h23.703a6.427 6.427 0 006.109-4.463l5.761-17.832-12.522.695 14.065-5.47.02-.063a6.49 6.49 0 00-.865-5.729l-15.835 9.897c.141.494.215 1.011.215 1.539v1.426h.615a3.2 3.2 0 011.408.327l3.873 1.898a5.6 5.6 0 012.863 6.751l-1.714 5.301a4.8 4.8 0 01-4.567 3.323H34.98a5.6 5.6 0 01-1.966-.356l-5.449-2.044h-2.267a5.6 5.6 0 01-4.597 2.4h-4.56a4 4 0 01-3.806-2.77l-3.043-9.423a3.2 3.2 0 011.68-3.877L16 31.158v-3.16l-9.935-4.585a.8.8 0 01-.465-.727v-2.193a.8.8 0 01.443-.716l.8-.4a.8.8 0 01.715 0l11.113 5.556z" fill="#76FF33"/><path d="M18.4 31.198v.63a.32.32 0 00.182.288l.362.174a1.6 1.6 0 01.89 1.668l-1.283 8.984a3.2 3.2 0 01-.905 1.81L15.61 46.79a.239.239 0 00-.025.31c.174.064.362.1.556.1h4.56a3.2 3.2 0 003.104-2.424l1.924-7.69a3.2 3.2 0 00-1.922-3.724L18.4 31.198zm17.613 16h3.265a2.4 2.4 0 002.284-1.661l1.713-5.301a3.2 3.2 0 00-1.636-3.858l-3.872-1.898a.797.797 0 00-.167-.06V35a.32.32 0 00.177.287l.182.09a1.6 1.6 0 01.802 1.938L36.12 45.24a1.6 1.6 0 01-.387.625l-.923.923a.24.24 0 00.17.41h1.033zm-.981-20.71a5.6 5.6 0 01.851 1.013L48.88 16.129l-2.813-2.055-11.035 12.414zM28 34.398l6.547 2.619a1.6 1.6 0 01.904 2.047L33.99 42.96a1.6 1.6 0 01-1.498 1.038H26.4l1.6-6.4a6.598 6.598 0 000-3.2z" fill="#76FF33"/></svg>